# xmcd
#
# Track frame offsets:
#	150
#	14500
#	35292
#	56744
#	72271
#	89538
#	105740
#	123750
#	146680
#	166820
#	183960
#
# Disc length: 2723 seconds
#
# Revision: 0
# Processed by: cddbd v1.5.2PL0 Copyright (c) Steve Scherf et al.
# Submitted via: EZCDAudioConverter 2.4.0.1
#
DISCID=910aa10b
DTITLE=Ruthie Foster - The Phenomenal Ruthie Foster
DYEAR=2007
DGENRE=Blues
TTITLE0='Cuz I'm Here
TTITLE1=Heal Yourself
TTITLE2=Fruits Of My Labor
TTITLE3=People Grinnin' In Your Face
TTITLE4=Up Above My Head (I Hear Music In The Air)
TTITLE5=Harder Tan The Fall
TTITLE6=Beaver Creek Blues
TTITLE7=Mama Said
TTITLE8=Phenomenal Woman
TTITLE9=A Friend Like You
TTITLE10=I Don't Know What To Do With My Heart
EXTD=
EXTT0=
EXTT1=
EXTT2=
EXTT3=
EXTT4=
EXTT5=
EXTT6=
EXTT7=
EXTT8=
EXTT9=
EXTT10=
PLAYORDER=
